<?xml version="1.0" standalone="no"?>
<!DOCTYPE svg PUBLIC "-//W3C//DTD SVG 20010904//EN"
 "http://www.w3.org/TR/2001/REC-SVG-20010904/DTD/svg10.dtd">
<svg version="1.0" xmlns="http://www.w3.org/2000/svg"
 width="267.000000pt" height="189.000000pt" viewBox="0 0 267.000000 189.000000"
 preserveAspectRatio="xMidYMid meet">

<g transform="translate(0.000000,189.000000) scale(0.100000,-0.100000)"
fill="#000000" stroke="none">
<path d="M430 1824 c-46 -17 -61 -31 -77 -73 -10 -25 -63 -107 -119 -181 -55
-74 -106 -145 -113 -158 -14 -27 -6 -59 17 -70 46 -23 292 -5 292 21 0 5 7 7
15 3 17 -6 21 19 5 29 -5 3 -15 16 -21 28 -7 16 -2 14 19 -9 21 -22 34 -29 43
-23 19 12 96 11 104 -1 4 -6 11 -8 16 -5 5 3 6 0 3 -8 -4 -11 15 -18 78 -31
106 -21 114 -20 139 5 45 45 -6 154 -85 184 -74 28 -162 16 -362 -49 -187 -61
-229 -84 -221 -123 4 -23 3 -24 -12 -9 -35 35 27 80 177 130 273 90 351 102
427 67 74 -34 122 -113 105 -173 -5 -17 -5 -28 1 -28 15 0 49 63 49 91 0 66
-55 162 -153 266 -85 90 -139 117 -237 120 -41 1 -82 0 -90 -3z m297 -350 c-3
-3 -12 -4 -19 -1 -8 3 -5 6 6 6 11 1 17 -2 13 -5z m-68 -17 c-2 -2 -20 -14
-39 -26 l-35 -23 30 26 c17 14 34 26 39 26 5 0 7 -1 5 -3z m59 -54 c-10 -2
-28 -2 -40 0 -13 2 -5 4 17 4 22 1 32 -1 23 -4z"/>
<path d="M1293 1803 c-20 -2 -33 -10 -33 -19 0 -17 -16 -19 -26 -3 -10 17
-134 5 -180 -17 -46 -22 -55 -49 -22 -60 13 -4 29 -7 36 -5 8 1 26 -6 40 -15
23 -16 52 -18 207 -19 245 0 405 24 405 61 0 18 -63 49 -130 63 -60 13 -245
22 -297 14z m197 -80 c33 -12 -27 -22 -130 -22 -104 0 -162 10 -130 23 33 12
225 12 260 -1z"/>
<path d="M1993 1783 c-47 -16 -93 -63 -93 -94 0 -40 19 -61 48 -54 26 6 26 6
8 -14 -19 -21 -19 -21 3 -21 13 0 19 -4 16 -11 -9 -13 21 -47 59 -66 27 -14
48 -18 109 -22 9 -1 17 -7 17 -15 0 -10 18 -17 53 -23 l52 -8 5 35 c5 33 6 34
18 13 6 -12 12 -29 12 -37 0 -19 40 -22 57 -5 8 8 17 8 33 -1 53 -28 130 20
130 82 0 36 -23 92 -54 133 -72 94 -340 156 -473 108z m175 -32 c-2 -9 -11
-17 -21 -19 -21 -4 -35 27 -17 38 19 12 42 0 38 -19z m142 -15 c0 -20 -19 -31
-32 -18 -6 6 -7 15 -4 21 10 16 36 13 36 -3z m-300 -31 c0 -8 -7 -15 -15 -15
-16 0 -20 12 -8 23 11 12 23 8 23 -8z m206 -16 c10 -17 -13 -36 -27 -22 -12
12 -4 33 11 33 5 0 12 -5 16 -11z m196 -14 c0 -5 -5 -11 -11 -13 -6 -2 -11 4
-11 13 0 9 5 15 11 13 6 -2 11 -8 11 -13z m43 -44 c7 -12 -12 -24 -25 -16 -11
7 -4 25 10 25 5 0 11 -4 15 -9z"/>
<path d="M1011 1676 c21 -45 179 -108 171 -68 -3 15 -2 15 37 -4 43 -21 60 -6
27 25 -14 13 -31 21 -38 19 -8 -3 1 -13 22 -26 19 -12 30 -22 25 -22 -6 0 -27
12 -48 26 -21 14 -44 23 -51 21 -7 -3 -26 3 -42 14 -31 20 -54 25 -54 10 0 -5
28 -23 62 -40 33 -17 55 -31 47 -31 -21 0 -89 38 -127 71 -40 35 -45 36 -31 5z
m164 -46 c3 -5 2 -10 -4 -10 -5 0 -13 5 -16 10 -3 6 -2 10 4 10 5 0 13 -4 16
-10z"/>
<path d="M1696 1683 c-4 -4 -18 -9 -32 -10 -14 -2 -43 -17 -65 -33 -37 -26
-38 -29 -19 -35 27 -9 106 31 128 63 13 20 5 32 -12 15z m-16 -18 c0 -9 -75
-55 -90 -55 -8 0 8 13 35 29 59 34 55 32 55 26z"/>
<path d="M1563 1657 c-10 -17 -54 -47 -68 -47 -5 0 6 10 25 22 30 19 32 22 15
26 -12 3 -25 -4 -33 -17 -8 -11 -19 -21 -24 -21 -6 0 -5 7 2 15 8 9 9 15 2 15
-6 0 -13 -4 -17 -10 -3 -5 -12 -7 -21 -3 -8 3 -21 -3 -29 -13 -18 -24 -19 -40
-2 -25 8 6 17 8 20 4 4 -3 12 -1 20 5 8 7 18 7 27 2 8 -5 25 -7 36 -4 12 3 25
1 28 -5 4 -6 12 -11 19 -11 6 0 2 6 -8 14 -18 13 -17 14 12 30 40 20 50 36 24
36 -11 0 -24 -6 -28 -13z"/>
<path d="M1250 1641 c0 -5 11 -16 25 -25 14 -9 25 -14 25 -10 0 4 7 1 15 -6
12 -10 15 -10 15 1 0 11 3 11 11 -1 8 -11 9 -9 4 10 -4 14 -12 30 -17 35 -7 7
-8 2 -4 -15 6 -23 6 -23 -7 -7 -8 9 -17 17 -20 17 -4 0 -4 -8 -1 -17 4 -13 0
-11 -12 5 -17 22 -34 29 -34 13z"/>
<path d="M1350 1632 c0 -19 20 -54 20 -35 0 6 3 18 6 26 3 8 -2 17 -10 20 -11
4 -16 1 -16 -11z"/>
<path d="M1386 1624 c-9 -24 -7 -28 9 -14 17 14 20 30 6 30 -5 0 -12 -7 -15
-16z"/>
<path d="M1280 1423 c0 -208 17 -414 35 -433 17 -16 92 -17 108 -1 5 5 10 126
11 295 l1 286 -77 0 -78 0 0 -147z"/>
<path d="M2066 1473 c-20 -70 -58 -346 -54 -399 5 -88 13 -94 118 -94 72 0 92
4 111 19 30 24 31 81 3 161 -17 52 -25 204 -13 264 3 16 -4 22 -36 29 -22 6
-46 16 -53 24 -20 19 -70 17 -76 -4z m180 -374 c2 -22 -10 -38 -28 -39 -4 0
-4 10 1 23 4 12 6 28 3 36 -3 8 1 12 9 9 8 -3 15 -16 15 -29z m-186 -59 c0 -5
7 -7 15 -4 20 8 19 -13 -1 -33 -17 -17 -28 -10 -39 25 -5 16 -2 22 9 22 9 0
16 -4 16 -10z m67 -37 c-3 -3 -11 -2 -17 2 -9 6 -9 10 1 16 14 8 27 -7 16 -18z"/>
<path d="M466 1358 c-40 -41 -96 -181 -103 -260 -5 -50 -3 -59 19 -81 30 -30
109 -43 196 -33 119 13 137 62 72 191 -25 51 -43 103 -47 136 -7 68 -16 79
-65 79 -32 0 -47 -7 -72 -32z"/>
<path d="M420 873 c-30 -14 -93 -38 -140 -53 -71 -23 -85 -31 -86 -49 -2 -32
29 -47 126 -64 154 -27 375 -12 479 33 40 18 18 20 -39 4 -110 -31 -521 -27
-552 4 -8 8 1 8 28 0 25 -8 118 -12 254 -12 184 0 224 3 280 20 69 20 84 42
40 55 -14 4 -87 25 -162 48 -76 23 -145 41 -155 40 -10 0 -43 -12 -73 -26z
m95 7 c-3 -5 -13 -10 -21 -10 -8 0 -12 5 -9 10 3 6 13 10 21 10 8 0 12 -4 9
-10z m-59 -27 c-10 -10 -19 5 -10 18 6 11 8 11 12 0 2 -7 1 -15 -2 -18z m120
0 c-7 -7 -26 7 -26 19 0 6 6 6 15 -2 9 -7 13 -15 11 -17z m-56 -43 c-6 -11
-15 -18 -20 -15 -11 7 -1 37 14 47 16 11 19 -7 6 -32z m120 30 c-19 -13 -30
-13 -30 0 0 6 10 10 23 10 18 0 19 -2 7 -10z m-262 -12 c-5 -16 -48 -24 -48
-10 0 11 17 20 38 21 8 1 12 -5 10 -11z m76 -17 c3 -4 -6 -13 -19 -19 -25 -12
-42 -1 -30 18 8 12 42 13 49 1z m144 -14 c5 -23 -10 -21 -26 4 -12 18 -11 20
5 17 10 -2 19 -11 21 -21z m132 14 c0 -15 -19 -23 -38 -16 -14 5 -14 7 -2 15
19 12 40 13 40 1z"/>
<path d="M1235 859 l-44 -41 -65 7 -64 7 -24 -38 c-54 -88 -61 -135 -27 -178
32 -41 60 -32 73 24 15 60 52 83 95 57 16 -9 38 -17 48 -17 11 0 30 -11 43
-25 31 -33 43 -32 89 10 43 39 53 42 71 20 17 -21 42 -19 85 6 33 20 37 20 54
5 24 -21 43 -20 64 4 18 22 42 26 52 10 3 -5 15 -10 26 -10 26 0 26 43 -1 70
-17 17 -28 20 -70 14 -43 -6 -50 -4 -44 9 8 21 -13 57 -32 57 -9 0 -34 -10
-55 -22 -38 -21 -41 -21 -68 -5 -16 9 -37 17 -46 17 -9 0 -30 14 -45 30 -37
40 -62 38 -115 -11z m178 -89 c12 -17 21 -20 56 -14 50 8 53 -2 6 -21 -27 -12
-39 -13 -60 -3 -21 9 -31 9 -46 0 -13 -9 -25 -9 -38 -3 -12 7 -22 6 -29 -1 -8
-8 -19 -7 -41 2 -17 7 -42 9 -55 6 -14 -3 -28 -1 -32 5 -9 15 21 43 37 34 21
-14 113 -13 144 0 41 18 42 18 58 -5z"/>
<path d="M1987 889 c-9 -6 -29 -33 -44 -62 -14 -29 -41 -70 -59 -93 -38 -46
-47 -111 -18 -134 37 -32 301 64 389 141 61 54 41 96 -55 118 -25 6 -65 17
-89 26 -50 17 -98 19 -124 4z"/>
<path d="M1120 687 c0 -3 17 -26 39 -50 77 -90 106 -182 120 -390 11 -155 20
-177 75 -177 64 0 72 24 86 244 11 177 18 200 96 307 37 50 42 61 28 66 -9 3
-35 -4 -59 -17 -41 -22 -43 -23 -72 -5 l-31 18 -38 -31 c-45 -37 -76 -41 -95
-11 -13 18 -48 32 -121 46 -16 3 -28 3 -28 0z"/>
<path d="M447 645 c-9 -20 -17 -37 -17 -38 0 -5 130 0 135 5 3 3 0 19 -6 36
-10 29 -15 32 -53 32 -39 0 -44 -3 -59 -35z"/>
<path d="M2288 635 c-95 -49 -117 -73 -99 -112 11 -23 11 -23 43 -7 26 14 53
16 148 12 115 -5 160 -17 160 -42 0 -19 -23 -26 -85 -26 -39 0 -54 4 -59 16
-4 10 -15 14 -33 12 -25 -3 -29 -8 -33 -50 -5 -36 -14 -56 -39 -82 -28 -29
-34 -45 -47 -122 -8 -49 -19 -97 -24 -106 -22 -39 -13 -49 43 -46 l52 3 -3 70
c-5 102 5 145 43 206 19 29 35 61 35 71 0 15 9 18 63 18 67 0 107 18 107 48 0
27 -49 125 -78 155 -39 41 -87 36 -194 -18z"/>
<path d="M2083 630 c-21 -8 -21 -10 -8 -62 34 -128 57 -312 50 -395 -7 -89 -9
-85 48 -97 25 -6 27 -4 27 23 0 16 5 33 11 37 22 13 -11 234 -63 427 -21 78
-26 83 -65 67z"/>
<path d="M461 369 c2 -120 7 -221 11 -225 4 -4 14 -1 22 5 11 10 16 9 24 -5 6
-11 16 -14 32 -9 21 7 22 10 15 84 -4 42 -13 141 -19 221 l-11 145 -39 0 -38
1 3 -217z"/>
<path d="M2253 514 c-13 -3 -23 -10 -23 -15 0 -5 10 -9 23 -9 18 0 19 -2 7
-10 -17 -11 -1 -13 25 -4 13 6 14 9 3 16 -9 6 -6 7 10 3 13 -4 29 -2 36 4 16
13 77 8 103 -9 16 -10 16 -11 1 -6 -10 3 -20 1 -24 -5 -4 -6 13 -9 47 -7 55 3
76 21 37 32 -31 9 -217 16 -245 10z"/>
<path d="M455 130 c13 -71 12 -70 70 -70 61 0 69 7 55 45 -9 23 -12 24 -31 14
-18 -9 -24 -8 -31 5 -8 14 -13 15 -24 5 -16 -13 -16 -13 -33 16 -10 17 -11 15
-6 -15z"/>
</g>
</svg>
